<svg width="249" height="128" viewBox="0 0 249 128" fill="none" xmlns="http://www.w3.org/2000/svg">
<g filter="url(#filter0_d_244_213)">
<path fill-rule="evenodd" clip-rule="evenodd" d="M14.8762 100.837C12.8134 99.3952 10.7464 99.2024 9.69954 100.7C8.36137 102.615 9.34224 104.347 12.0118 105.892C14.0746 107.333 16.3787 107.598 17.4256 106.1C18.4724 104.602 16.939 102.279 14.8762 100.837ZM32.2631 94.352C37.109 98.0763 39.1215 102.65 36.5168 106.039C33.1873 110.371 28.5054 109.304 22.9641 104.268C18.1183 100.544 15.7622 95.4787 18.3669 92.0896C20.9716 88.7006 27.4173 90.6276 32.2631 94.352Z" fill="white"/>
<path d="M9.69954 100.7L10.5192 101.273L9.69954 100.7ZM14.8762 100.837L14.3033 101.657L14.8762 100.837ZM12.0118 105.892L12.5126 105.026C12.5372 105.04 12.5613 105.056 12.5847 105.072L12.0118 105.892ZM17.4256 106.1L16.6059 105.527L17.4256 106.1ZM36.5168 106.039L35.7239 105.43L36.5168 106.039ZM32.2631 94.352L32.8725 93.5591L32.2631 94.352ZM22.9641 104.268L23.5735 103.475C23.5953 103.492 23.6163 103.509 23.6367 103.528L22.9641 104.268ZM18.3669 92.0896L19.1598 92.699L18.3669 92.0896ZM9.69954 100.7L8.87989 100.127C9.62523 99.0609 10.7517 98.6126 11.9523 98.6673C13.1083 98.7198 14.3217 99.2294 15.449 100.017L14.8762 100.837L14.3033 101.657C13.3679 101.003 12.5164 100.695 11.8614 100.665C11.2511 100.637 10.8207 100.842 10.5192 101.273L9.69954 100.7ZM12.0118 105.892L11.511 106.757C10.1153 105.95 8.9915 105.003 8.44971 103.864C7.86046 102.625 8.03756 101.333 8.87989 100.127L9.69954 100.7L10.5192 101.273C10.0233 101.982 10.0218 102.513 10.2558 103.005C10.5373 103.597 11.2387 104.289 12.5126 105.026L12.0118 105.892ZM17.4256 106.1L18.2452 106.673C17.474 107.776 16.2575 108.171 15.0385 108.096C13.8424 108.023 12.5766 107.506 11.4389 106.711L12.0118 105.892L12.5847 105.072C13.5098 105.719 14.4275 106.055 15.1608 106.1C15.8713 106.144 16.3303 105.922 16.6059 105.527L17.4256 106.1ZM14.8762 100.837L15.449 100.017C16.5761 100.805 17.5963 101.856 18.1976 102.974C18.7877 104.07 19.0832 105.474 18.2452 106.673L17.4256 106.1L16.6059 105.527C16.8148 105.228 16.867 104.721 16.4364 103.921C16.0169 103.142 15.239 102.311 14.3033 101.657L14.8762 100.837ZM36.5168 106.039L35.7239 105.43C36.7793 104.056 36.9305 102.445 36.2508 100.681C35.5555 98.8764 33.9883 96.9391 31.6538 95.1448L32.2631 94.352L32.8725 93.5591C35.3838 95.4892 37.2458 97.7008 38.117 99.9616C39.0039 102.263 38.859 104.632 37.3096 106.648L36.5168 106.039ZM22.9641 104.268L23.6367 103.528C26.358 106.001 28.7349 107.369 30.7236 107.678C32.5997 107.97 34.2545 107.341 35.7239 105.43L36.5168 106.039L37.3096 106.648C35.4495 109.069 33.0986 110.072 30.416 109.655C27.8462 109.255 25.1114 107.571 22.2915 105.008L22.9641 104.268ZM18.3669 92.0896L19.1598 92.699C18.1323 94.0359 18.0215 95.7511 18.799 97.6791C19.5836 99.6247 21.2487 101.688 23.5735 103.475L22.9641 104.268L22.3547 105.061C19.8337 103.123 17.8979 100.792 16.9441 98.427C15.9833 96.0442 15.9968 93.5324 17.574 91.4802L18.3669 92.0896ZM32.2631 94.352L31.6538 95.1448C29.3195 93.3508 26.6329 92.0188 24.2729 91.5327C21.8795 91.0398 20.1154 91.4557 19.1598 92.699L18.3669 92.0896L17.574 91.4802C19.2232 89.3345 21.9842 89.0194 24.6763 89.5738C27.4018 90.1351 30.361 91.6288 32.8725 93.5591L32.2631 94.352Z" fill="black"/>
</g>
<g filter="url(#filter1_d_244_213)">
<path d="M92.3077 16.5698C77.2345 9.20711 63.7618 17.1939 63.7618 20.5404C55.2286 19.1233 48.2367 20.5404 48.2367 26.867C36.9166 26.867 29.7851 30.4709 31.4597 40.768C21.188 50.8305 22.8683 56.1352 28.4548 65.481C24.08 74.2071 27.5882 83.0275 42.227 86.8474C42.227 98.2545 49.0374 102.064 63.7618 101.778C77.5878 110.156 84.7698 110.575 103.953 104.352C116.763 111.363 126.072 109.678 138.883 104.352C155.643 109.489 164.93 111.18 180.199 100.234C188.013 100.457 207.124 98.5808 212.636 79.7791C227.26 78.3375 231.087 62.9613 229.752 56.6115C229.752 47.0867 220.264 25.5798 200.482 30.4709C201.684 10.0828 175.108 12.7084 161.669 16.5698C155.409 6.78769 135.377 9.10456 131.12 16.5698C124.109 6.78747 101.956 6.1707 92.3077 16.5698Z" fill="white"/>
<path d="M92.3077 16.5698C77.2345 9.20711 63.7618 17.1939 63.7618 20.5404C55.2286 19.1233 48.2367 20.5404 48.2367 26.867C36.9166 26.867 29.7851 30.4709 31.4597 40.768C21.188 50.8305 22.8683 56.1352 28.4548 65.481C24.08 74.2071 27.5882 83.0275 42.227 86.8474C42.227 98.2545 49.0374 102.064 63.7618 101.778C77.5878 110.156 84.7698 110.575 103.953 104.352C116.763 111.363 126.072 109.678 138.883 104.352C155.643 109.489 164.93 111.18 180.199 100.234C188.013 100.457 207.124 98.5808 212.636 79.7791C227.26 78.3375 231.087 62.9613 229.752 56.6115C229.752 47.0867 220.264 25.5798 200.482 30.4709C201.684 10.0828 175.108 12.7084 161.669 16.5698C155.409 6.78769 135.377 9.10456 131.12 16.5698C124.109 6.78747 101.956 6.1707 92.3077 16.5698Z" stroke="black" stroke-width="2" stroke-linecap="round" stroke-linejoin="round"/>
</g>
<defs>
<filter id="filter0_d_244_213" x="0.104004" y="81.3337" width="56.5581" height="46.4129" filterUnits="userSpaceOnUse" color-interpolation-filters="sRGB">
<feFlood flood-opacity="0" result="BackgroundImageFix"/>
<feColorMatrix in="SourceAlpha" type="matrix" values="0 0 0 0 0 0 0 0 0 0 0 0 0 0 0 0 0 0 127 0" result="hardAlpha"/>
<feOffset dx="5" dy="5"/>
<feGaussianBlur stdDeviation="6.5"/>
<feComposite in2="hardAlpha" operator="out"/>
<feColorMatrix type="matrix" values="0 0 0 0 0 0 0 0 0 0 0 0 0 0 0 0 0 0 0.25 0"/>
<feBlend mode="normal" in2="BackgroundImageFix" result="effect1_dropShadow_244_213"/>
<feBlend mode="normal" in="SourceGraphic" in2="effect1_dropShadow_244_213" result="shape"/>
</filter>
<filter id="filter1_d_244_213" x="15" y="0" width="234" height="128" filterUnits="userSpaceOnUse" color-interpolation-filters="sRGB">
<feFlood flood-opacity="0" result="BackgroundImageFix"/>
<feColorMatrix in="SourceAlpha" type="matrix" values="0 0 0 0 0 0 0 0 0 0 0 0 0 0 0 0 0 0 127 0" result="hardAlpha"/>
<feOffset dx="5" dy="5"/>
<feGaussianBlur stdDeviation="6.5"/>
<feComposite in2="hardAlpha" operator="out"/>
<feColorMatrix type="matrix" values="0 0 0 0 0 0 0 0 0 0 0 0 0 0 0 0 0 0 0.25 0"/>
<feBlend mode="normal" in2="BackgroundImageFix" result="effect1_dropShadow_244_213"/>
<feBlend mode="normal" in="SourceGraphic" in2="effect1_dropShadow_244_213" result="shape"/>
</filter>
</defs>
</svg>
